<svg xmlns="http://www.w3.org/2000/svg" version="1.1" xmlns:xlink="http://www.w3.org/1999/xlink" xmlns:svgjs="http://svgjs.dev/svgjs" width="1500" height="627" viewBox="0 0 1500 627"><g transform="matrix(1,0,0,1,-0.4116400303184946,-0.8871382978722409)"><svg viewBox="0 0 337 141" data-background-color="#ffffff" preserveAspectRatio="xMidYMid meet" height="627" width="1500" xmlns="http://www.w3.org/2000/svg" xmlns:xlink="http://www.w3.org/1999/xlink"><g id="tight-bounds" transform="matrix(1,0,0,1,0.09248179347821406,0.19949999999997203)"><svg viewBox="0 0 336.8150364130436 140.60052000000002" height="140.60052000000002" width="336.8150364130436"><g><svg viewBox="0 0 336.8150364130436 140.60052000000002" height="140.60052000000002" width="336.8150364130436"><g><svg viewBox="0 0 336.8150364130436 140.60052000000002" height="140.60052000000002" width="336.8150364130436"><g><path d="M0 140.601v-140.601h336.815v140.601z" fill="#b81d33" stroke="transparent" stroke-width="0" rx="0%" data-fill-palette-color="tertiary"></path><path d="M3.283 137.317v-134.034h330.249v134.034z" fill="#ffffff" stroke="transparent" stroke-width="0" rx="0%" data-fill-palette-color="quaternary"></path><path d="M9.85 130.751v-120.901h317.115v120.901z" fill="#b81d33" stroke="transparent" stroke-width="0" data-fill-palette-color="tertiary"></path></g><g transform="matrix(1,0,0,1,19.69974,19.69974)" id="textblocktransform"><svg viewBox="0 0 297.4155564130436 101.20104000000002" height="101.20104000000002" width="297.4155564130436" id="textblock"><g><svg viewBox="0 0 297.4155564130436 101.20104000000002" height="101.20104000000002" width="297.4155564130436"><g transform="matrix(1,0,0,1,0,0)"><svg width="297.4155564130436" viewBox="1 -36 108.14 36.8" height="101.20104000000002" data-palette-color="#ffffff"><path d="M13.05-7.65L8.5-7.65 8.5-35.25 13.05-35.25 13.05-7.65ZM8.5-7.65L13.05-7.65Q13.05-3.65 11.08-1.43 9.1 0.8 5.55 0.8L5.55 0.8 5.15-3.15Q6.2-3.15 6.95-3.68 7.7-4.2 8.1-5.23 8.5-6.25 8.5-7.65L8.5-7.65ZM1-0.75L2.8-4Q3.35-3.65 3.93-3.4 4.5-3.15 5.15-3.15L5.15-3.15 5.55 0.8Q4.35 0.8 3.2 0.4 2.05 0 1-0.75L1-0.75ZM38.45 0L34 0 19.9-35.25 24.35-35.25 38.45 0ZM23.6 0L19.05 0 19.05-35.25 23.6-35.25 23.6 0ZM39.75 0L35.2 0 35.2-35.25 39.75-35.25 39.75 0ZM52.3-18.9L47.9-18.9 58.25-35.25 62.8-35.25 52.3-18.9ZM63.45 0L58.65 0 47.5-18.9 52.3-18.9 63.45 0ZM50.7 0L46.15 0 46.15-35.25 50.7-35.25 50.7 0ZM84.59-8.6L80.04-8.6 80.04-26.7 84.59-26.7 84.59-8.6ZM69.39-8.6L64.84-8.6 64.84-26.7 69.39-26.7 69.39-8.6ZM84.59-26.65L84.59-26.65 80.04-26.65Q80.04-29.25 78.62-30.65 77.19-32.05 74.69-32.05L74.69-32.05 74.69-36Q77.64-36 79.87-34.83 82.09-33.65 83.34-31.53 84.59-29.4 84.59-26.65ZM69.39-26.65L64.84-26.65Q64.84-29.4 66.09-31.53 67.34-33.65 69.59-34.83 71.84-36 74.74-36L74.74-36 74.74-32.05Q72.24-32.05 70.82-30.65 69.39-29.25 69.39-26.65L69.39-26.65ZM80.04-8.65L84.59-8.65Q84.59-5.85 83.34-3.75 82.09-1.65 79.87-0.45 77.64 0.75 74.69 0.75L74.69 0.75 74.69-3.2Q77.19-3.2 78.62-4.63 80.04-6.05 80.04-8.65L80.04-8.65ZM64.84-8.65L64.84-8.65 69.39-8.65Q69.39-6.05 70.82-4.63 72.24-3.2 74.74-3.2L74.74-3.2 74.74 0.75Q71.84 0.75 69.59-0.45 67.34-1.65 66.09-3.75 64.84-5.85 64.84-8.65ZM109.14-7.9L104.59-7.9Q104.59-9.75 103.54-11.18 102.49-12.6 100.84-13.85 99.19-15.1 97.31-16.4 95.44-17.7 93.79-19.25 92.14-20.8 91.09-22.78 90.04-24.75 90.04-27.35L90.04-27.35 94.59-27.35Q94.59-25.55 95.64-24.13 96.69-22.7 98.34-21.43 99.99-20.15 101.87-18.85 103.74-17.55 105.39-16.03 107.04-14.5 108.09-12.53 109.14-10.55 109.14-7.9L109.14-7.9ZM94.59-27.25L90.04-27.25Q90.04-30 91.29-31.95 92.54-33.9 94.79-34.95 97.04-36 99.94-36L99.94-36 99.94-32.1Q97.44-32.1 96.02-30.8 94.59-29.5 94.59-27.25L94.59-27.25ZM104.59-8L109.14-8Q109.14-5.3 107.89-3.33 106.64-1.35 104.42-0.3 102.19 0.75 99.24 0.75L99.24 0.75 99.24-3.2Q101.74-3.2 103.17-4.48 104.59-5.75 104.59-8L104.59-8ZM108.89-28.55L104.64-27.7Q104.39-29.95 103.06-31.03 101.74-32.1 99.94-32.1L99.94-32.1 99.94-36Q102.29-36 104.19-35.05 106.09-34.1 107.34-32.45 108.59-30.8 108.89-28.55L108.89-28.55ZM89.09-9.05L93.24-9.9Q93.54-6.75 95.12-4.98 96.69-3.2 99.24-3.2L99.24-3.2 99.24 0.75Q94.99 0.75 92.31-1.85 89.64-4.45 89.09-9.05L89.09-9.05Z" opacity="1" transform="matrix(1,0,0,1,0,0)" fill="#ffffff" class="wordmark-text-0" data-fill-palette-color="quaternary" id="text-0"></path></svg></g></svg></g></svg></g></svg></g><g></g></svg></g><defs></defs></svg><rect width="336.8150364130436" height="140.60052000000002" fill="none" stroke="none" visibility="hidden"></rect></g></svg></g></svg>